<svg width="49" height="41" viewBox="0 0 49 41" fill="none" xmlns="http://www.w3.org/2000/svg">
<path d="M6.64 18.68C7.33333 18.68 7.99333 18.5 8.62 18.14C9.24667 17.78 9.76667 17.2867 10.18 16.66V17.68C9.68667 18.2267 9.14667 18.6267 8.56 18.88C7.97333 19.12 7.30667 19.24 6.56 19.24C5.73333 19.24 4.95333 19.02 4.22 18.58C3.5 18.14 2.92 17.5533 2.48 16.82C2.05333 16.0867 1.84 15.3067 1.84 14.48C1.84 13.5867 2.05333 12.7867 2.48 12.08C2.90667 11.36 3.48667 10.8 4.22 10.4C4.96667 10 5.79333 9.8 6.7 9.8C8.08667 9.8 9.26667 10.3467 10.24 11.44L3.96 17.64C4.4 18 4.82667 18.2667 5.24 18.44C5.65333 18.6 6.12 18.68 6.64 18.68ZM2.48 14.42C2.48 15.5267 2.84667 16.4733 3.58 17.26L9.44 11.44C9 11.0533 8.57333 10.78 8.16 10.62C7.74667 10.4467 7.25333 10.36 6.68 10.36C5.86667 10.36 5.14 10.54 4.5 10.9C3.87333 11.2467 3.38 11.7267 3.02 12.34C2.66 12.9533 2.48 13.6467 2.48 14.42ZM18.4805 19.22C17.6271 19.22 16.8338 19.0067 16.1005 18.58C15.3671 18.1533 14.7871 17.58 14.3605 16.86C13.9338 16.1267 13.7205 15.34 13.7205 14.5C13.7205 13.66 13.9338 12.88 14.3605 12.16C14.7871 11.4267 15.3671 10.8467 16.1005 10.42C16.8338 9.99333 17.6271 9.78 18.4805 9.78C19.3471 9.78 20.1671 10.0133 20.9405 10.48C21.7138 10.9333 22.2538 11.5267 22.5605 12.26V10H23.2005V19H22.5605V16.76C22.2005 17.5067 21.6405 18.1067 20.8805 18.56C20.1338 19 19.3338 19.22 18.4805 19.22ZM18.5205 18.66C19.2538 18.66 19.9338 18.4733 20.5605 18.1C21.1871 17.7133 21.6805 17.2067 22.0405 16.58C22.4138 15.94 22.6005 15.2467 22.6005 14.5C22.6005 13.7667 22.4138 13.08 22.0405 12.44C21.6671 11.8 21.1671 11.2933 20.5405 10.92C19.9138 10.5333 19.2338 10.34 18.5005 10.34C17.7671 10.34 17.0805 10.5333 16.4405 10.92C15.8138 11.3067 15.3071 11.82 14.9205 12.46C14.5471 13.1 14.3605 13.7867 14.3605 14.52C14.3605 15.2533 14.5471 15.94 14.9205 16.58C15.3071 17.2067 15.8205 17.7133 16.4605 18.1C17.1005 18.4733 17.7871 18.66 18.5205 18.66ZM27.7248 10H28.3648V12.08C28.6315 11.4267 29.0182 10.9133 29.5248 10.54C30.0448 10.1667 30.6315 9.98 31.2848 9.98C31.6982 9.98 32.1182 10.0667 32.5448 10.24V10.98C32.1582 10.6867 31.7248 10.54 31.2448 10.54C30.7648 10.54 30.2982 10.6867 29.8448 10.98C29.4048 11.2733 29.0448 11.6667 28.7648 12.16C28.4982 12.6533 28.3648 13.18 28.3648 13.74V19H27.7248V10Z" fill="black"/>
<path d="M8.62 18.14L8.12188 17.2729L8.62 18.14ZM10.18 16.66H11.18V13.3277L9.34523 16.1094L10.18 16.66ZM10.18 17.68L10.9224 18.35L11.18 18.0645V17.68H10.18ZM8.56 18.88L8.93863 19.8055L8.94757 19.8019L8.95644 19.7981L8.56 18.88ZM4.22 18.58L3.69853 19.4333L3.7055 19.4375L4.22 18.58ZM2.48 16.82L1.61557 17.3229L1.62251 17.3345L2.48 16.82ZM2.48 12.08L3.33609 12.5969L3.34029 12.5898L2.48 12.08ZM4.22 10.4L3.74777 9.51849L3.74115 9.5221L4.22 10.4ZM10.24 11.44L10.9426 12.1516L11.6184 11.4844L10.9869 10.7751L10.24 11.44ZM3.96 17.64L3.25744 16.9284L2.46602 17.7097L3.32676 18.414L3.96 17.64ZM5.24 18.44L4.85327 19.3622L4.86607 19.3676L4.87901 19.3726L5.24 18.44ZM3.58 17.26L2.84853 17.9419L3.55234 18.6969L4.28468 17.9695L3.58 17.26ZM9.44 11.44L10.1447 12.1495L10.9041 11.3953L10.1001 10.6888L9.44 11.44ZM8.16 10.62L7.77327 11.5422L7.78607 11.5476L7.79901 11.5526L8.16 10.62ZM4.5 10.9L4.98407 11.7751L4.99026 11.7716L4.5 10.9ZM6.64 19.68C7.5157 19.68 8.34658 19.4503 9.11812 19.0071L8.12188 17.2729C7.64009 17.5497 7.15097 17.68 6.64 17.68V19.68ZM9.11812 19.0071C9.88549 18.5663 10.5189 17.9624 11.0148 17.2106L9.34523 16.1094C9.01443 16.6109 8.60785 16.9937 8.12188 17.2729L9.11812 19.0071ZM9.18 16.66V17.68H11.18V16.66H9.18ZM9.43761 17.01C9.02586 17.4663 8.59981 17.7736 8.16356 17.9619L8.95644 19.7981C9.69352 19.4798 10.3475 18.987 10.9224 18.35L9.43761 17.01ZM8.18137 17.9545C7.73426 18.1374 7.19954 18.24 6.56 18.24V20.24C7.41379 20.24 8.21241 20.1026 8.93863 19.8055L8.18137 17.9545ZM6.56 18.24C5.92102 18.24 5.31804 18.0726 4.7345 17.7225L3.7055 19.4375C4.58863 19.9674 5.54564 20.24 6.56 20.24V18.24ZM4.74145 17.7267C4.16109 17.3721 3.69563 16.9024 3.33749 16.3055L1.62251 17.3345C2.14437 18.2043 2.83891 18.9079 3.69855 19.4333L4.74145 17.7267ZM3.34435 16.3171C3.00408 15.7323 2.84 15.1252 2.84 14.48H0.84C0.84 15.4881 1.10259 16.4411 1.61565 17.3229L3.34435 16.3171ZM2.84 14.48C2.84 13.7533 3.01127 13.1348 3.33606 12.5969L1.62394 11.5631C1.0954 12.4385 0.84 13.42 0.84 14.48H2.84ZM3.34029 12.5898C3.67542 12.0243 4.12378 11.5916 4.69885 11.2779L3.74115 9.5221C2.84955 10.0084 2.13791 10.6957 1.61971 11.5702L3.34029 12.5898ZM4.69222 11.2815C5.28349 10.9647 5.94618 10.8 6.7 10.8V8.8C5.64049 8.8 4.64985 9.03527 3.74778 9.51852L4.69222 11.2815ZM6.7 10.8C7.78379 10.8 8.69756 11.2113 9.49309 12.1049L10.9869 10.7751C9.83578 9.48202 8.38954 8.8 6.7 8.8V10.8ZM9.53744 10.7284L3.25744 16.9284L4.66256 18.3516L10.9426 12.1516L9.53744 10.7284ZM3.32676 18.414C3.82237 18.8195 4.33096 19.1432 4.85327 19.3622L5.62673 17.5178C5.32238 17.3902 4.97763 17.1805 4.59324 16.866L3.32676 18.414ZM4.87901 19.3726C5.42556 19.5841 6.01754 19.68 6.64 19.68V17.68C6.22246 17.68 5.88111 17.6159 5.60099 17.5074L4.87901 19.3726ZM1.48 14.42C1.48 15.7716 1.93716 16.9642 2.84853 17.9419L4.31147 16.5781C3.75617 15.9824 3.48 15.2817 3.48 14.42H1.48ZM4.28468 17.9695L10.1447 12.1495L8.73532 10.7305L2.87532 16.5505L4.28468 17.9695ZM10.1001 10.6888C9.5986 10.2481 9.07284 9.90105 8.52099 9.68743L7.79901 11.5526C8.07383 11.659 8.4014 11.8586 8.77989 12.1912L10.1001 10.6888ZM8.54673 9.6978C7.98192 9.46095 7.35057 9.36 6.68 9.36V11.36C7.1561 11.36 7.51141 11.4324 7.77327 11.5422L8.54673 9.6978ZM6.68 9.36C5.71384 9.36 4.81508 9.57542 4.00974 10.0284L4.99026 11.7716C5.46492 11.5046 6.0195 11.36 6.68 11.36V9.36ZM4.01594 10.025C3.23353 10.4578 2.60902 11.0647 2.15758 11.8338L3.88242 12.8462C4.15098 12.3886 4.51314 12.0355 4.98406 11.775L4.01594 10.025ZM2.15758 11.8338C1.6997 12.6139 1.48 13.4847 1.48 14.42H3.48C3.48 13.8086 3.6203 13.2928 3.88242 12.8462L2.15758 11.8338ZM16.1005 18.58L15.5976 19.4443L16.1005 18.58ZM14.3605 16.86L13.4961 17.3629L13.5002 17.3698L14.3605 16.86ZM14.3605 12.16L15.2208 12.6698L15.2248 12.6629L14.3605 12.16ZM16.1005 10.42L15.5976 9.55565L16.1005 10.42ZM20.9405 10.48L20.4238 11.3363L20.4347 11.3427L20.9405 10.48ZM22.5605 12.26L21.6379 12.6458L23.5605 12.26H22.5605ZM22.5605 10V9H21.5605V10H22.5605ZM23.2005 10H24.2005V9H23.2005V10ZM23.2005 19V20H24.2005V19H23.2005ZM22.5605 19H21.5605V20H22.5605V19ZM22.5605 16.76H23.5605L21.6597 16.3257L22.5605 16.76ZM20.8805 18.56L21.3882 19.4216L21.3927 19.4188L20.8805 18.56ZM20.5605 18.1L21.0723 18.9591L21.079 18.9551L21.0856 18.951L20.5605 18.1ZM22.0405 16.58L21.1767 16.0761L21.1734 16.0819L22.0405 16.58ZM22.0405 12.44L21.1767 12.9439L21.1767 12.9439L22.0405 12.44ZM20.5405 10.92L20.0154 11.771L20.022 11.7751L20.0287 11.7791L20.5405 10.92ZM16.4405 10.92L15.9233 10.064L15.9154 10.069L16.4405 10.92ZM14.9205 12.46L14.0646 11.9429L14.0606 11.9495L14.0567 11.9561L14.9205 12.46ZM14.9205 16.58L14.0567 17.0839L14.0629 17.0946L14.0694 17.1051L14.9205 16.58ZM16.4605 18.1L15.9434 18.9559L15.9499 18.9599L15.9566 18.9638L16.4605 18.1ZM18.4805 18.22C17.8027 18.22 17.1831 18.0529 16.6034 17.7157L15.5976 19.4443C16.4845 19.9604 17.4515 20.22 18.4805 20.22V18.22ZM16.6034 17.7157C16.0153 17.3735 15.5592 16.9214 15.2208 16.3502L13.5002 17.3698C14.015 18.2386 14.7189 18.9331 15.5976 19.4443L16.6034 17.7157ZM15.2248 16.3571C14.8861 15.7749 14.7205 15.1615 14.7205 14.5H12.7205C12.7205 15.5185 12.9815 16.4785 13.4961 17.3629L15.2248 16.3571ZM14.7205 14.5C14.7205 13.8387 14.8859 13.2349 15.2208 12.6698L13.5002 11.6502C12.9817 12.5251 12.7205 13.4813 12.7205 14.5H14.7205ZM15.2248 12.6629C15.5643 12.0793 16.0198 11.6239 16.6034 11.2843L15.5976 9.55565C14.7145 10.0695 14.0099 10.774 13.4961 11.6571L15.2248 12.6629ZM16.6034 11.2843C17.1831 10.9471 17.8027 10.78 18.4805 10.78V8.78C17.4515 8.78 16.4845 9.0396 15.5976 9.55565L16.6034 11.2843ZM18.4805 10.78C19.1572 10.78 19.7995 10.9595 20.4238 11.3362L21.4571 9.62381C20.5348 9.06721 19.5371 8.78 18.4805 8.78V10.78ZM20.4347 11.3427C21.0462 11.7011 21.4254 12.1376 21.6379 12.6458L23.483 11.8742C23.0822 10.9157 22.3814 10.1656 21.4462 9.6173L20.4347 11.3427ZM23.5605 12.26V10H21.5605V12.26H23.5605ZM22.5605 11H23.2005V9H22.5605V11ZM22.2005 10V19H24.2005V10H22.2005ZM23.2005 18H22.5605V20H23.2005V18ZM23.5605 19V16.76H21.5605V19H23.5605ZM21.6597 16.3257C21.3906 16.8837 20.9718 17.3411 20.3682 17.7012L21.3927 19.4188C22.3091 18.8722 23.0103 18.1296 23.4612 17.1943L21.6597 16.3257ZM20.3728 17.6985C19.7774 18.0493 19.1523 18.22 18.4805 18.22V20.22C19.5153 20.22 20.4902 19.9507 21.3882 19.4215L20.3728 17.6985ZM18.5205 19.66C19.433 19.66 20.2899 19.4252 21.0723 18.9591L20.0487 17.2409C19.5777 17.5215 19.0746 17.66 18.5205 17.66V19.66ZM21.0856 18.951C21.851 18.4787 22.4631 17.8519 22.9076 17.0781L21.1734 16.0819C20.8979 16.5615 20.5232 16.9479 20.0354 17.249L21.0856 18.951ZM22.9042 17.0839C23.3675 16.2897 23.6005 15.4223 23.6005 14.5H21.6005C21.6005 15.0711 21.4601 15.5903 21.1767 16.0761L22.9042 17.0839ZM23.6005 14.5C23.6005 13.5877 23.3658 12.7274 22.9042 11.9361L21.1767 12.9439C21.4618 13.4326 21.6005 13.9456 21.6005 14.5H23.6005ZM22.9042 11.9361C22.447 11.1522 21.8268 10.5223 21.0523 10.0609L20.0287 11.7791C20.5074 12.0643 20.8873 12.4478 21.1767 12.9439L22.9042 11.9361ZM21.0656 10.069C20.2818 9.58533 19.4201 9.34 18.5005 9.34V11.34C19.0475 11.34 19.5458 11.4813 20.0154 11.771L21.0656 10.069ZM18.5005 9.34C17.5811 9.34 16.7161 9.5851 15.9234 10.0641L16.9576 11.7759C17.4448 11.4816 17.9531 11.34 18.5005 11.34V9.34ZM15.9154 10.069C15.1513 10.5404 14.5321 11.1691 14.0646 11.9429L15.7764 12.9771C16.0822 12.4709 16.4763 12.0729 16.9656 11.771L15.9154 10.069ZM14.0567 11.9561C13.5951 12.7474 13.3605 13.6077 13.3605 14.52H15.3605C15.3605 13.9656 15.4992 13.4526 15.7842 12.9639L14.0567 11.9561ZM13.3605 14.52C13.3605 15.4323 13.5951 16.2926 14.0567 17.0839L15.7842 16.0761C15.4992 15.5874 15.3605 15.0744 15.3605 14.52H13.3605ZM14.0694 17.1051C14.5409 17.8692 15.1695 18.4884 15.9434 18.9559L16.9776 17.2441C16.4714 16.9383 16.0734 16.5442 15.7715 16.0549L14.0694 17.1051ZM15.9566 18.9638C16.7479 19.4254 17.6082 19.66 18.5205 19.66V17.66C17.9661 17.66 17.4531 17.5213 16.9643 17.2362L15.9566 18.9638ZM27.7248 10V9H26.7248V10H27.7248ZM28.3648 10H29.3648V9H28.3648V10ZM28.3648 12.08H27.3648L29.2907 12.4579L28.3648 12.08ZM29.5248 10.54L28.9416 9.72761L28.9316 9.73494L29.5248 10.54ZM32.5448 10.24H33.5448V9.56688L32.9212 9.31353L32.5448 10.24ZM32.5448 10.98L31.9405 11.7767L33.5448 12.9938V10.98H32.5448ZM29.8448 10.98L29.3015 10.1404L29.2901 10.1479L29.8448 10.98ZM28.7648 12.16L27.8952 11.6664L27.8901 11.6754L27.8851 11.6845L28.7648 12.16ZM28.3648 19V20H29.3648V19H28.3648ZM27.7248 19H26.7248V20H27.7248V19ZM27.7248 11H28.3648V9H27.7248V11ZM27.3648 10V12.08H29.3648V10H27.3648ZM29.2907 12.4579C29.4965 11.9536 29.7768 11.5965 30.118 11.3451L28.9316 9.73494C28.2595 10.2302 27.7665 10.8997 27.439 11.7021L29.2907 12.4579ZM30.1081 11.3523C30.4544 11.1037 30.8361 10.98 31.2848 10.98V8.98C30.4269 8.98 29.6353 9.22964 28.9416 9.72768L30.1081 11.3523ZM31.2848 10.98C31.5552 10.98 31.8477 11.0362 32.1685 11.1665L32.9212 9.31353C32.3887 9.09718 31.8412 8.98 31.2848 8.98V10.98ZM31.5448 10.24V10.98H33.5448V10.24H31.5448ZM33.1492 10.1833C32.5908 9.75965 31.9457 9.54 31.2448 9.54V11.54C31.504 11.54 31.7256 11.6137 31.9405 11.7767L33.1492 10.1833ZM31.2448 9.54C30.5487 9.54 29.8959 9.75587 29.3016 10.1404L30.3881 11.8196C30.7004 11.6175 30.981 11.54 31.2448 11.54V9.54ZM29.2901 10.1479C28.7108 10.5342 28.2465 11.0473 27.8952 11.6664L29.6345 12.6536C29.8431 12.286 30.0989 12.0125 30.3995 11.812L29.2901 10.1479ZM27.8851 11.6845C27.5396 12.3237 27.3648 13.0137 27.3648 13.74H29.3648C29.3648 13.3463 29.4567 12.983 29.6446 12.6355L27.8851 11.6845ZM27.3648 13.74V19H29.3648V13.74H27.3648ZM28.3648 18H27.7248V20H28.3648V18ZM28.7248 19V10H26.7248V19H28.7248Z" fill="black"/>
<path d="M22.68 24.8C22.1733 24.8 21.7067 24.9267 21.28 25.18C20.8533 25.42 20.5133 25.76 20.26 26.2C20.02 26.6267 19.9 27.1 19.9 27.62V28H22.68V28.56H19.9V37H19.26V27.62C19.26 26.9933 19.4067 26.4267 19.7 25.92C20.0067 25.4 20.42 24.9933 20.94 24.7C21.4733 24.3933 22.0533 24.24 22.68 24.24V24.8ZM30.3372 37.22C29.0705 37.22 28.0905 36.8733 27.3972 36.18C26.7172 35.4867 26.3772 34.5067 26.3772 33.24V28H27.0172V33.24C27.0172 34.3333 27.3039 35.18 27.8772 35.78C28.4639 36.3667 29.2839 36.66 30.3372 36.66C30.9772 36.66 31.5639 36.52 32.0972 36.24C32.6305 35.9467 33.0505 35.54 33.3572 35.02C33.6639 34.5 33.8172 33.9067 33.8172 33.24V28H34.4572V37H33.8172V35.32C33.5105 35.88 33.0505 36.34 32.4372 36.7C31.8239 37.0467 31.1239 37.22 30.3372 37.22ZM38.9827 28H39.6227V30C39.916 29.3333 40.416 28.8 41.1227 28.4C41.8293 27.9867 42.6093 27.78 43.4627 27.78C44.5693 27.78 45.4427 28.1333 46.0827 28.84C46.736 29.5333 47.0627 30.5067 47.0627 31.76V37H46.4227V31.76C46.4227 30.68 46.156 29.84 45.6227 29.24C45.1027 28.64 44.3693 28.34 43.4227 28.34C42.7293 28.34 42.0893 28.5 41.5027 28.82C40.9293 29.1267 40.4693 29.5533 40.1227 30.1C39.7893 30.6467 39.6227 31.2667 39.6227 31.96V37H38.9827V28Z" fill="black"/>
<path d="M22.68 24.8V25.8H23.68V24.8H22.68ZM21.28 25.18L21.7703 26.0516L21.7805 26.0458L21.7905 26.0399L21.28 25.18ZM20.26 26.2L19.3933 25.701L19.3884 25.7097L20.26 26.2ZM19.9 28H18.9V29H19.9V28ZM22.68 28H23.68V27H22.68V28ZM22.68 28.56V29.56H23.68V28.56H22.68ZM19.9 28.56V27.56H18.9V28.56H19.9ZM19.9 37V38H20.9V37H19.9ZM19.26 37H18.26V38H19.26V37ZM19.7 25.92L18.8386 25.412L18.8346 25.419L19.7 25.92ZM20.94 24.7L21.4313 25.571L21.4385 25.5669L20.94 24.7ZM22.68 24.24H23.68V23.24H22.68V24.24ZM22.68 23.8C21.9976 23.8 21.354 23.9731 20.7695 24.3201L21.7905 26.0399C22.0593 25.8803 22.349 25.8 22.68 25.8V23.8ZM20.7897 24.3084C20.2004 24.6399 19.7329 25.1113 19.3934 25.701L21.1266 26.699C21.2938 26.4087 21.5062 26.2001 21.7703 26.0516L20.7897 24.3084ZM19.3884 25.7097C19.059 26.2954 18.9 26.9393 18.9 27.62H20.9C20.9 27.2607 20.981 26.9579 21.1316 26.6903L19.3884 25.7097ZM18.9 27.62V28H20.9V27.62H18.9ZM19.9 29H22.68V27H19.9V29ZM21.68 28V28.56H23.68V28H21.68ZM22.68 27.56H19.9V29.56H22.68V27.56ZM18.9 28.56V37H20.9V28.56H18.9ZM19.9 36H19.26V38H19.9V36ZM20.26 37V27.62H18.26V37H20.26ZM20.26 27.62C20.26 27.1565 20.3665 26.7647 20.5654 26.421L18.8346 25.419C18.4469 26.0886 18.26 26.8302 18.26 27.62H20.26ZM20.5614 26.428C20.7798 26.0576 21.0662 25.7769 21.4313 25.571L20.4487 23.829C19.7738 24.2097 19.2336 24.7424 18.8386 25.412L20.5614 26.428ZM21.4385 25.5669C21.8172 25.3491 22.2249 25.24 22.68 25.24V23.24C21.8818 23.24 21.1294 23.4375 20.4415 23.8331L21.4385 25.5669ZM21.68 24.24V24.8H23.68V24.24H21.68ZM27.3972 36.18L26.6832 36.8802L26.6901 36.8871L27.3972 36.18ZM26.3772 28V27H25.3772V28H26.3772ZM27.0172 28H28.0172V27H27.0172V28ZM27.8772 35.78L27.1542 36.4709L27.162 36.4791L27.1701 36.4871L27.8772 35.78ZM32.0972 36.24L32.562 37.1254L32.5706 37.1209L32.5791 37.1162L32.0972 36.24ZM33.3572 35.02L32.4958 34.512L33.3572 35.02ZM33.8172 28V27H32.8172V28H33.8172ZM34.4572 28H35.4572V27H34.4572V28ZM34.4572 37V38H35.4572V37H34.4572ZM33.8172 37H32.8172V38H33.8172V37ZM33.8172 35.32H34.8172L32.9401 34.8397L33.8172 35.32ZM32.4372 36.7L32.9292 37.5706L32.9363 37.5665L32.9434 37.5624L32.4372 36.7ZM30.3372 36.22C29.2549 36.22 28.5598 35.9284 28.1043 35.4729L26.6901 36.8871C27.6213 37.8183 28.8862 38.22 30.3372 38.22V36.22ZM28.1111 35.4798C27.6652 35.0251 27.3772 34.3275 27.3772 33.24H25.3772C25.3772 34.6858 25.7691 35.9482 26.6832 36.8802L28.1111 35.4798ZM27.3772 33.24V28H25.3772V33.24H27.3772ZM26.3772 29H27.0172V27H26.3772V29ZM26.0172 28V33.24H28.0172V28H26.0172ZM26.0172 33.24C26.0172 34.5065 26.3524 35.6317 27.1542 36.4709L28.6002 35.0891C28.2553 34.7283 28.0172 34.1602 28.0172 33.24H26.0172ZM27.1701 36.4871C27.9915 37.3085 29.0938 37.66 30.3372 37.66V35.66C29.4739 35.66 28.9363 35.4249 28.5843 35.0729L27.1701 36.4871ZM30.3372 37.66C31.1287 37.66 31.8764 37.4854 32.562 37.1254L31.6324 35.3546C31.2513 35.5546 30.8257 35.66 30.3372 35.66V37.66ZM32.5791 37.1162C33.2683 36.7372 33.8199 36.2039 34.2186 35.528L32.4958 34.512C32.2811 34.8761 31.9927 35.1562 31.6153 35.3638L32.5791 37.1162ZM34.2186 35.528C34.6252 34.8384 34.8172 34.0662 34.8172 33.24H32.8172C32.8172 33.7472 32.7025 34.1616 32.4958 34.512L34.2186 35.528ZM34.8172 33.24V28H32.8172V33.24H34.8172ZM33.8172 29H34.4572V27H33.8172V29ZM33.4572 28V37H35.4572V28H33.4572ZM34.4572 36H33.8172V38H34.4572V36ZM34.8172 37V35.32H32.8172V37H34.8172ZM32.9401 34.8397C32.7299 35.2236 32.4067 35.5584 31.931 35.8376L32.9434 37.5624C33.6944 37.1216 34.2912 36.5364 34.6943 35.8003L32.9401 34.8397ZM31.9451 35.8294C31.4988 36.0817 30.9719 36.22 30.3372 36.22V38.22C31.2758 38.22 32.1489 38.0116 32.9292 37.5706L31.9451 35.8294ZM38.9827 28V27H37.9827V28H38.9827ZM39.6227 28H40.6227V27H39.6227V28ZM39.6227 30H38.6227L40.538 30.4027L39.6227 30ZM41.1227 28.4L41.6153 29.2703L41.6214 29.2668L41.6275 29.2632L41.1227 28.4ZM46.0827 28.84L45.3415 29.5113L45.3481 29.5186L45.3549 29.5258L46.0827 28.84ZM47.0627 37V38H48.0627V37H47.0627ZM46.4227 37H45.4227V38H46.4227V37ZM45.6227 29.24L44.8669 29.895L44.8752 29.9044L45.6227 29.24ZM41.5027 28.82L41.9743 29.7018L41.9815 29.6979L41.5027 28.82ZM40.1227 30.1L39.2781 29.5645L39.2734 29.5719L39.2689 29.5794L40.1227 30.1ZM39.6227 37V38H40.6227V37H39.6227ZM38.9827 37H37.9827V38H38.9827V37ZM38.9827 29H39.6227V27H38.9827V29ZM38.6227 28V30H40.6227V28H38.6227ZM40.538 30.4027C40.7346 29.956 41.0736 29.5769 41.6153 29.2703L40.6301 27.5297C39.7584 28.0231 39.0974 28.7107 38.7073 29.5973L40.538 30.4027ZM41.6275 29.2632C42.1744 28.9433 42.7789 28.78 43.4627 28.78V26.78C42.4397 26.78 41.4842 27.03 40.6178 27.5368L41.6275 29.2632ZM43.4627 28.78C44.3368 28.78 44.9221 29.0483 45.3415 29.5113L46.8239 28.1687C45.9632 27.2184 44.8018 26.78 43.4627 26.78V28.78ZM45.3549 29.5258C45.7838 29.981 46.0627 30.6788 46.0627 31.76H48.0627C48.0627 30.3345 47.6881 29.0856 46.8104 28.1542L45.3549 29.5258ZM46.0627 31.76V37H48.0627V31.76H46.0627ZM47.0627 36H46.4227V38H47.0627V36ZM47.4227 37V31.76H45.4227V37H47.4227ZM47.4227 31.76C47.4227 30.5207 47.1152 29.4139 46.3701 28.5756L44.8752 29.9044C45.1968 30.2661 45.4227 30.8393 45.4227 31.76H47.4227ZM46.3783 28.5851C45.6317 27.7235 44.5981 27.34 43.4227 27.34V29.34C44.1405 29.34 44.5736 29.5565 44.867 29.8949L46.3783 28.5851ZM43.4227 27.34C42.5685 27.34 41.763 27.5389 41.0238 27.9421L41.9815 29.6979C42.4157 29.4611 42.8901 29.34 43.4227 29.34V27.34ZM41.031 27.9382C40.3063 28.3258 39.7176 28.8715 39.2781 29.5645L40.9672 30.6355C41.221 30.2352 41.5523 29.9275 41.9743 29.7018L41.031 27.9382ZM39.2689 29.5794C38.832 30.2958 38.6227 31.0988 38.6227 31.96H40.6227C40.6227 31.4346 40.7466 30.9975 40.9765 30.6206L39.2689 29.5794ZM38.6227 31.96V37H40.6227V31.96H38.6227ZM39.6227 36H38.9827V38H39.6227V36ZM39.9827 37V28H37.9827V37H39.9827Z" fill="black"/>
<path d="M4 31L12 31" stroke="black" stroke-width="3" stroke-linecap="round"/>
</svg>
