<svg width="492" height="492" viewBox="0 0 492 492" fill="none" xmlns="http://www.w3.org/2000/svg">
<circle cx="246" cy="246" r="246" fill="#2B2B2B"/>
<path d="M360.981 236H280.981L295.981 166H375.981L360.981 236Z" fill="#D9D9D9"/>
<path d="M282.981 236H202.981L217.981 166H297.981L282.981 236Z" fill="#D9D9D9"/>
<path d="M204.981 236H124.981L139.981 166H219.981L204.981 236Z" fill="#D9D9D9"/>
<path d="M192 299L112 299L125.481 234.67H205.481L192 299Z" fill="#D9D9D9"/>
<path d="M299.981 141H219.981L234.981 71H314.981L299.981 141Z" fill="#38BDF8"/>
<path d="M327.981 314H268.481L281.481 256L340.481 256L327.981 314Z" fill="#D9D9D9"/>
<path d="M244.481 423H162.981L187.981 314H267.981L244.481 423Z" fill="#38BDF8"/>
</svg>
